# xmcd CD database file
#
# Track frame offsets:
#	150
#	45048
#	89901
#	126909
#	155436
#	244918
#	288309
#
# Disc length: 4799 seconds
#
# Revision: 0
# Processed by: cddbd v1.5.1PL0 Copyright (c) Steve Scherf et al.
# Submitted via: CDex 1.51
#
DISCID=5b12bd07
DTITLE=Jack DeJohnette Chano Dominguez Project - 2005 JazzBaltica
DYEAR=2005
DGENRE=Jazz
TTITLE0=Jack DeJohnette Chano Dominguez Project - Mister C.I.
TTITLE1=Jack DeJohnette Chano Dominguez Project - Spanish Seven
TTITLE2=Jack DeJohnette Chano Dominguez Project - Bye-A
TTITLE3=Jack DeJohnette Chano Dominguez Project - Solea Blues
TTITLE4=Jack DeJohnette Chano Dominguez Project - Spantango
TTITLE5=Jack DeJohnette Chano Dominguez Project - El Sosiego
TTITLE6=Jack DeJohnette Chano Dominguez Project - Spanish Salsa
EXTD=YEAR: 2005
EXTT0=
EXTT1=
EXTT2=
EXTT3=
EXTT4=
EXTT5=
EXTT6=
PLAYORDER=
